<?xml version="1.0" encoding="utf-8"?>
<!-- Generator: Adobe Illustrator 27.5.0, SVG Export Plug-In . SVG Version: 6.00 Build 0)  -->
<svg version="1.1" id="Layer_1" xmlns="http://www.w3.org/2000/svg" xmlns:xlink="http://www.w3.org/1999/xlink" x="0px" y="0px"
	 viewBox="0 0 25 25" style="enable-background:new 0 0 25 25;" xml:space="preserve">
<g id="Layer_2">
	<g id="Layer_3">
		<g id="Layer_4">
		</g>
		<g id="Layer_5">
		</g>
	</g>
</g>
<g>
	<g>
		<rect style="fill:#FFFFFF;" width="25" height="25"/>
	</g>
	<g>
		<g>
			<g>
				<rect x="0.686" y="0.05" style="fill:#0071BC;" width="0.1" height="4.191"/>
			</g>
			<g>
				<path style="fill:#0071BC;" d="M1.009,4.489c0,0.151-0.123,0.273-0.273,0.273c-0.151,0-0.273-0.123-0.273-0.273
					c0-0.15,0.123-0.273,0.273-0.273C0.886,4.216,1.009,4.338,1.009,4.489z M0.561,4.489c0,0.097,0.078,0.174,0.174,0.174
					c0.095,0,0.174-0.078,0.174-0.174c0-0.096-0.079-0.174-0.174-0.174C0.639,4.315,0.561,4.393,0.561,4.489z"/>
			</g>
			<g>
				<path style="fill:#0071BC;" d="M0.785,11.043c0,0.151-0.123,0.273-0.273,0.273c-0.15,0-0.271-0.123-0.271-0.273
					c0-0.151,0.122-0.274,0.271-0.274C0.663,10.769,0.785,10.892,0.785,11.043z M0.339,11.043c0,0.096,0.077,0.174,0.172,0.174
					s0.174-0.078,0.174-0.174s-0.079-0.174-0.174-0.174S0.339,10.947,0.339,11.043z"/>
			</g>
			<g>
				<path style="fill:#0071BC;" d="M1.898,6.648c0,0.151-0.123,0.273-0.273,0.273S1.351,6.799,1.351,6.648
					c0-0.151,0.123-0.272,0.273-0.272S1.898,6.498,1.898,6.648z M1.45,6.648c0,0.096,0.078,0.174,0.174,0.174
					c0.097,0,0.174-0.077,0.174-0.174c0-0.095-0.079-0.173-0.174-0.173C1.528,6.475,1.45,6.553,1.45,6.648z"/>
			</g>
			<g>
				<path style="fill:#0071BC;" d="M0.785,8.765c0,0.151-0.123,0.273-0.273,0.273c-0.15,0-0.271-0.123-0.271-0.273
					c0-0.15,0.122-0.273,0.271-0.273C0.663,8.492,0.785,8.614,0.785,8.765z M0.339,8.765c0,0.097,0.077,0.174,0.172,0.174
					s0.174-0.078,0.174-0.174c0-0.096-0.079-0.174-0.174-0.174S0.339,8.668,0.339,8.765z"/>
			</g>
			<g>
				<path style="fill:#0071BC;" d="M0.785,9.652c0,0.151-0.123,0.273-0.273,0.273c-0.15,0-0.271-0.123-0.271-0.273
					c0-0.151,0.122-0.273,0.271-0.273C0.663,9.378,0.785,9.501,0.785,9.652z M0.339,9.652c0,0.096,0.077,0.174,0.172,0.174
					s0.174-0.078,0.174-0.174c0-0.096-0.079-0.174-0.174-0.174S0.339,9.556,0.339,9.652z"/>
			</g>
			<g>
				<path style="fill:#0071BC;" d="M3.01,9.652c0,0.151-0.123,0.273-0.273,0.273c-0.151,0-0.273-0.123-0.273-0.273
					c0-0.151,0.123-0.273,0.273-0.273C2.888,9.378,3.01,9.501,3.01,9.652z M2.563,9.652c0,0.096,0.078,0.174,0.174,0.174
					c0.095,0,0.174-0.078,0.174-0.174c0-0.096-0.079-0.174-0.174-0.174C2.641,9.478,2.563,9.556,2.563,9.652z"/>
			</g>
			<g>
				<path style="fill:#0071BC;" d="M6.566,3.759c0,0.151-0.122,0.272-0.271,0.272c-0.151,0-0.273-0.122-0.273-0.272
					c0-0.15,0.123-0.273,0.273-0.273C6.445,3.486,6.566,3.609,6.566,3.759z M6.121,3.759c0,0.098,0.076,0.173,0.174,0.173
					c0.094,0,0.172-0.078,0.172-0.173c0-0.096-0.078-0.174-0.172-0.174C6.199,3.585,6.121,3.663,6.121,3.759z"/>
			</g>
			<g>
				<path style="fill:#0071BC;" d="M6.345,2.345c0,0.151-0.123,0.273-0.273,0.273c-0.15,0-0.273-0.123-0.273-0.273
					c0-0.151,0.123-0.272,0.273-0.272C6.222,2.073,6.345,2.194,6.345,2.345z M5.897,2.345c0,0.097,0.076,0.174,0.174,0.174
					c0.096,0,0.174-0.078,0.174-0.174c0-0.095-0.079-0.173-0.174-0.173C5.975,2.172,5.897,2.25,5.897,2.345z"/>
			</g>
			<g>
				<path style="fill:#0071BC;" d="M6.345,4.936c0,0.15-0.123,0.272-0.273,0.272c-0.15,0-0.273-0.122-0.273-0.272
					c0-0.151,0.123-0.272,0.273-0.272C6.222,4.663,6.345,4.785,6.345,4.936z M5.897,4.936c0,0.097,0.076,0.173,0.174,0.173
					c0.096,0,0.174-0.078,0.174-0.173c0-0.095-0.079-0.173-0.174-0.173C5.973,4.762,5.897,4.838,5.897,4.936z"/>
			</g>
			<g>
				<path style="fill:#0071BC;" d="M5.454,4.898c0,0.151-0.122,0.272-0.271,0.272c-0.151,0-0.273-0.122-0.273-0.272
					c0-0.151,0.123-0.272,0.273-0.272C5.332,4.626,5.454,4.748,5.454,4.898z M5.008,4.898c0,0.097,0.076,0.173,0.174,0.173
					c0.094,0,0.172-0.078,0.172-0.173c0-0.095-0.078-0.173-0.172-0.173C5.084,4.725,5.008,4.801,5.008,4.898z"/>
			</g>
			<g>
				<path style="fill:#0071BC;" d="M5.454,8.989c0,0.15-0.122,0.272-0.271,0.272c-0.151,0-0.273-0.122-0.273-0.272
					c0-0.151,0.123-0.273,0.273-0.273C5.332,8.715,5.454,8.838,5.454,8.989z M5.008,8.989c0,0.095,0.078,0.173,0.174,0.173
					c0.094,0,0.172-0.078,0.172-0.173c0-0.097-0.078-0.174-0.172-0.174C5.084,8.814,5.008,8.891,5.008,8.989z"/>
			</g>
			<g>
				<path style="fill:#0071BC;" d="M6.566,7.894c0,0.15-0.122,0.273-0.271,0.273c-0.151,0-0.273-0.123-0.273-0.273
					c0-0.151,0.123-0.273,0.273-0.273C6.445,7.62,6.566,7.743,6.566,7.894z M6.121,7.894c0,0.096,0.078,0.174,0.174,0.174
					c0.094,0,0.172-0.078,0.172-0.174c0-0.097-0.078-0.174-0.172-0.174C6.199,7.719,6.121,7.797,6.121,7.894z"/>
			</g>
			<g>
				<path style="fill:#0071BC;" d="M4.343,7.894c0,0.15-0.123,0.273-0.273,0.273c-0.151,0-0.273-0.123-0.273-0.273
					c0-0.151,0.123-0.273,0.273-0.273C4.221,7.62,4.343,7.743,4.343,7.894z M3.896,7.894c0,0.096,0.078,0.174,0.174,0.174
					c0.095,0,0.174-0.078,0.174-0.174c0-0.097-0.079-0.174-0.174-0.174C3.974,7.719,3.896,7.797,3.896,7.894z"/>
			</g>
			<g>
				<path style="fill:#0071BC;" d="M4.565,15.146c0,0.151-0.123,0.273-0.273,0.273c-0.15,0-0.271-0.122-0.271-0.273
					c0-0.15,0.122-0.273,0.271-0.273C4.442,14.872,4.565,14.995,4.565,15.146z M4.119,15.146c0,0.097,0.077,0.174,0.172,0.174
					c0.095,0,0.174-0.077,0.174-0.174c0-0.096-0.079-0.174-0.174-0.174C4.196,14.972,4.119,15.05,4.119,15.146z"/>
			</g>
			<g>
				<path style="fill:#0071BC;" d="M4.565,7.152c0,0.15-0.122,0.272-0.271,0.272c-0.151,0-0.273-0.122-0.273-0.272
					c0-0.151,0.123-0.273,0.273-0.273C4.443,6.879,4.565,7.001,4.565,7.152z M4.119,7.152c0,0.095,0.078,0.173,0.174,0.173
					c0.094,0,0.172-0.078,0.172-0.173c0-0.097-0.078-0.174-0.172-0.174C4.195,6.978,4.119,7.055,4.119,7.152z"/>
			</g>
			<g>
				<path style="fill:#0071BC;" d="M3.676,13.222c0,0.15-0.123,0.273-0.273,0.273c-0.15,0-0.271-0.123-0.271-0.273
					s0.122-0.273,0.271-0.273C3.553,12.948,3.676,13.071,3.676,13.222z M3.23,13.222c0,0.097,0.077,0.174,0.172,0.174
					c0.095,0,0.174-0.077,0.174-0.174c0-0.097-0.079-0.174-0.174-0.174C3.307,13.048,3.23,13.125,3.23,13.222z"/>
			</g>
			<g>
				<path style="fill:#0071BC;" d="M3.676,14.694c0,0.15-0.123,0.274-0.273,0.274c-0.15,0-0.271-0.123-0.271-0.274
					s0.122-0.273,0.271-0.273C3.553,14.421,3.676,14.544,3.676,14.694z M3.23,14.694c0,0.097,0.077,0.174,0.172,0.174
					c0.095,0,0.174-0.077,0.174-0.174c0-0.097-0.079-0.174-0.174-0.174C3.307,14.521,3.23,14.598,3.23,14.694z"/>
			</g>
			<g>
				<path style="fill:#0071BC;" d="M5.454,20.848c0,0.15-0.122,0.273-0.271,0.273c-0.151,0-0.273-0.123-0.273-0.273
					c0-0.15,0.123-0.274,0.273-0.274C5.332,20.574,5.454,20.697,5.454,20.848z M5.008,20.848c0,0.097,0.079,0.174,0.174,0.174
					c0.095,0,0.172-0.077,0.172-0.174c0-0.097-0.077-0.174-0.172-0.174C5.087,20.674,5.008,20.751,5.008,20.848z"/>
			</g>
			<g>
				<path style="fill:#0071BC;" d="M6.345,13.445c0,0.151-0.123,0.273-0.273,0.273c-0.15,0-0.273-0.122-0.273-0.273
					c0-0.15,0.123-0.273,0.273-0.273C6.222,13.172,6.345,13.295,6.345,13.445z M5.897,13.445c0,0.097,0.078,0.174,0.174,0.174
					c0.096,0,0.174-0.077,0.174-0.174c0-0.096-0.079-0.174-0.174-0.174C5.975,13.271,5.897,13.35,5.897,13.445z"/>
			</g>
			<g>
				<path style="fill:#0071BC;" d="M4.565,18.999c0,0.151-0.122,0.273-0.271,0.273c-0.151,0-0.273-0.122-0.273-0.273
					c0-0.15,0.123-0.272,0.273-0.272C4.443,18.727,4.565,18.849,4.565,18.999z M4.119,18.999c0,0.097,0.079,0.175,0.174,0.175
					c0.095,0,0.172-0.078,0.172-0.175c0-0.096-0.077-0.174-0.172-0.174C4.198,18.825,4.119,18.903,4.119,18.999z"/>
			</g>
			<g>
				<path style="fill:#0071BC;" d="M4.565,22.456c0,0.151-0.122,0.273-0.271,0.273c-0.151,0-0.273-0.122-0.273-0.273
					c0-0.15,0.123-0.274,0.273-0.274C4.443,22.183,4.565,22.306,4.565,22.456z M4.119,22.456c0,0.097,0.079,0.175,0.174,0.175
					c0.095,0,0.172-0.078,0.172-0.175c0-0.096-0.077-0.174-0.172-0.174C4.198,22.282,4.119,22.36,4.119,22.456z"/>
			</g>
			<g>
				<path style="fill:#0071BC;" d="M1.898,12.5c0,0.151-0.123,0.273-0.273,0.273S1.351,12.651,1.351,12.5s0.123-0.273,0.273-0.273
					S1.898,12.349,1.898,12.5z M1.45,12.5c0,0.096,0.078,0.174,0.174,0.174c0.095,0,0.174-0.078,0.174-0.174
					s-0.079-0.174-0.174-0.174C1.528,12.326,1.45,12.404,1.45,12.5z"/>
			</g>
			<g>
				<path style="fill:#0071BC;" d="M3.01,15.924c0,0.15-0.123,0.273-0.273,0.273c-0.151,0-0.273-0.123-0.273-0.273
					c0-0.15,0.123-0.273,0.273-0.273C2.888,15.65,3.01,15.773,3.01,15.924z M2.563,15.924c0,0.097,0.078,0.174,0.174,0.174
					c0.095,0,0.174-0.077,0.174-0.174c0-0.097-0.079-0.174-0.174-0.174C2.641,15.75,2.563,15.827,2.563,15.924z"/>
			</g>
			<g>
				<path style="fill:#0071BC;" d="M1.898,16.696c0,0.15-0.123,0.273-0.273,0.273c-0.15,0-0.271-0.123-0.271-0.273
					c0-0.151,0.122-0.273,0.271-0.273C1.775,16.423,1.898,16.545,1.898,16.696z M1.452,16.696c0,0.096,0.077,0.174,0.172,0.174
					c0.095,0,0.174-0.078,0.174-0.174c0-0.097-0.079-0.174-0.174-0.174C1.529,16.522,1.452,16.6,1.452,16.696z"/>
			</g>
			<g>
				<path style="fill:#0071BC;" d="M2.787,20.136c0,0.15-0.123,0.274-0.273,0.274c-0.149,0-0.271-0.123-0.271-0.274
					c0-0.151,0.122-0.273,0.271-0.273C2.664,19.862,2.787,19.984,2.787,20.136z M2.341,20.136c0,0.096,0.077,0.174,0.172,0.174
					c0.096,0,0.174-0.078,0.174-0.174c0-0.097-0.079-0.174-0.174-0.174C2.418,19.962,2.341,20.039,2.341,20.136z"/>
			</g>
			<g>
				<path style="fill:#0071BC;" d="M1.898,21.552c0,0.15-0.123,0.273-0.273,0.273c-0.15,0-0.271-0.123-0.271-0.273
					c0-0.15,0.122-0.274,0.271-0.274C1.775,21.278,1.898,21.401,1.898,21.552z M1.452,21.552c0,0.097,0.077,0.174,0.172,0.174
					c0.095,0,0.174-0.077,0.174-0.174c0-0.097-0.079-0.174-0.174-0.174C1.529,21.378,1.452,21.455,1.452,21.552z"/>
			</g>
			<g>
				<path style="fill:#0071BC;" d="M3.676,24.727c0,0.15-0.123,0.273-0.273,0.273c-0.15,0-0.271-0.123-0.271-0.273
					s0.122-0.274,0.271-0.274C3.553,24.453,3.676,24.576,3.676,24.727z M3.23,24.727c0,0.097,0.077,0.174,0.172,0.174
					c0.097,0,0.174-0.076,0.174-0.174c0-0.096-0.079-0.174-0.174-0.174C3.307,24.553,3.23,24.631,3.23,24.727z"/>
			</g>
			<g>
				<path style="fill:#0071BC;" d="M1.009,16.37c0,0.151-0.123,0.274-0.273,0.274c-0.151,0-0.273-0.122-0.273-0.274
					c0-0.15,0.123-0.273,0.273-0.273C0.886,16.097,1.009,16.22,1.009,16.37z M0.561,16.37c0,0.097,0.078,0.174,0.174,0.174
					c0.095,0,0.174-0.077,0.174-0.174c0-0.096-0.079-0.174-0.174-0.174C0.639,16.196,0.561,16.274,0.561,16.37z"/>
			</g>
			<g>
				<path style="fill:#0071BC;" d="M1.009,23.742c0,0.151-0.123,0.273-0.273,0.273c-0.151,0-0.273-0.122-0.273-0.273
					c0-0.15,0.123-0.273,0.273-0.273C0.886,23.469,1.009,23.592,1.009,23.742z M0.561,23.742c0,0.097,0.079,0.174,0.174,0.174
					c0.095,0,0.174-0.077,0.174-0.174c0-0.096-0.079-0.174-0.174-0.174C0.64,23.568,0.561,23.646,0.561,23.742z"/>
			</g>
			<g>
				<path style="fill:#0071BC;" d="M1.898,15.442c0,0.15-0.123,0.273-0.273,0.273c-0.15,0-0.271-0.123-0.271-0.273
					s0.122-0.274,0.271-0.274C1.775,15.169,1.898,15.292,1.898,15.442z M1.452,15.442c0,0.097,0.077,0.174,0.172,0.174
					c0.095,0,0.174-0.077,0.174-0.174s-0.079-0.174-0.174-0.174C1.529,15.269,1.452,15.346,1.452,15.442z"/>
			</g>
			<g>
				<path style="fill:#0071BC;" d="M2.787,12.401c0,0.151-0.123,0.273-0.273,0.273c-0.149,0-0.271-0.123-0.271-0.273
					s0.122-0.273,0.271-0.273C2.664,12.127,2.787,12.25,2.787,12.401z M2.341,12.401c0,0.096,0.077,0.174,0.172,0.174
					c0.096,0,0.174-0.078,0.174-0.174s-0.079-0.174-0.174-0.174C2.418,12.227,2.341,12.305,2.341,12.401z"/>
			</g>
			<g>
				<path style="fill:#0071BC;" d="M2.787,3.355c0,0.15-0.123,0.272-0.273,0.272c-0.149,0-0.271-0.122-0.271-0.272
					c0-0.151,0.122-0.273,0.271-0.273C2.664,3.082,2.787,3.204,2.787,3.355z M2.341,3.355c0,0.095,0.077,0.173,0.172,0.173
					c0.096,0,0.174-0.078,0.174-0.173c0-0.098-0.077-0.174-0.174-0.174C2.418,3.181,2.341,3.258,2.341,3.355z"/>
			</g>
			<g>
				<rect x="1.575" y="0.05" style="fill:#0071BC;" width="0.099" height="6.412"/>
			</g>
			<g>
				<rect x="2.464" y="0.05" style="fill:#0071BC;" width="0.099" height="3.081"/>
			</g>
			<g>
				<polygon style="fill:#0071BC;" points="3.452,0.05 3.452,5.244 2.563,5.244 2.563,8.814 0.735,8.814 0.735,8.715 2.464,8.715 
					2.464,5.145 3.353,5.145 3.353,0.05 				"/>
			</g>
			<g>
				<polygon style="fill:#0071BC;" points="4.343,0.05 4.343,6.729 3.452,6.729 3.452,10.371 2.563,10.371 2.563,11.989 
					1.575,11.989 1.575,11.092 0.735,11.092 0.735,10.993 1.674,10.993 1.674,11.89 2.464,11.89 2.464,10.271 3.353,10.271 
					3.353,6.63 4.244,6.63 4.244,0.05 				"/>
			</g>
			<g>
				<polygon style="fill:#0071BC;" points="6.071,3.71 6.071,3.809 5.133,3.809 5.133,0.05 5.232,0.05 5.232,3.71 				"/>
			</g>
			<g>
				<rect x="5.133" y="5.092" style="fill:#0071BC;" width="0.099" height="3.673"/>
			</g>
			<g>
				<polygon style="fill:#0071BC;" points="4.343,7.354 4.343,11.316 3.452,11.316 3.452,12.998 3.353,12.998 3.353,11.217 
					4.244,11.217 4.244,7.354 				"/>
			</g>
			<g>
				<polygon style="fill:#0071BC;" points="2.513,15.874 2.513,15.974 0.686,15.974 0.686,14.287 1.575,14.287 1.575,12.718 
					1.674,12.718 1.674,14.386 0.785,14.386 0.785,15.874 				"/>
			</g>
			<g>
				<polygon style="fill:#0071BC;" points="2.563,12.625 2.563,14.813 1.674,14.813 1.674,15.219 1.575,15.219 1.575,14.713 
					2.464,14.713 2.464,12.625 				"/>
			</g>
			<g>
				<polygon style="fill:#0071BC;" points="5.232,16.611 5.232,20.624 5.133,20.624 5.133,16.711 4.343,16.711 4.343,17.841 
					3.353,17.841 3.353,14.918 3.452,14.918 3.452,17.742 4.244,17.742 4.244,16.611 				"/>
			</g>
			<g>
				<polygon style="fill:#0071BC;" points="4.343,19.224 4.343,20.373 3.452,20.373 3.452,21.146 4.341,21.146 4.341,22.232 
					4.242,22.232 4.242,21.244 3.353,21.244 3.353,20.273 4.244,20.273 4.244,19.224 				"/>
			</g>
			<g>
				<polygon style="fill:#0071BC;" points="1.674,18.95 1.674,20.897 0.785,20.897 0.785,23.519 0.686,23.519 0.686,20.798 
					1.575,20.798 1.575,19.049 0.686,19.049 0.686,16.608 0.785,16.608 0.785,18.95 				"/>
			</g>
			<g>
				<polygon style="fill:#0071BC;" points="2.563,18.385 2.563,19.929 2.464,19.929 2.464,18.484 1.575,18.484 1.575,16.92 
					1.674,16.92 1.674,18.385 				"/>
			</g>
			<g>
				<polygon style="fill:#0071BC;" points="3.452,22.441 3.452,24.444 3.353,24.444 3.353,22.541 2.563,22.541 2.563,23.257 
					1.575,23.257 1.575,21.775 1.674,21.775 1.674,23.158 2.464,23.158 2.464,22.441 				"/>
			</g>
			<g>
				<rect x="6.022" y="0.05" style="fill:#0071BC;" width="0.099" height="2.073"/>
			</g>
			<g>
				<polygon style="fill:#0071BC;" points="7.01,7.284 7.01,9.23 6.121,9.23 6.121,11.056 5.232,11.056 5.232,13.11 4.341,13.11 
					4.341,14.918 4.242,14.918 4.242,13.011 5.133,13.011 5.133,10.957 6.022,10.957 6.022,9.13 6.911,9.13 6.911,7.383 
					6.022,7.383 6.022,5.154 6.121,5.154 6.121,7.284 				"/>
			</g>
			<g>
				<rect x="0.735" y="9.603" style="fill:#0071BC;" width="1.778" height="0.099"/>
			</g>
			<g>
				<rect x="4.292" y="7.844" style="fill:#0071BC;" width="1.78" height="0.099"/>
			</g>
			<g>
				<polygon style="fill:#0071BC;" points="7.01,15.861 7.01,18.734 6.121,18.734 6.121,21.512 5.232,21.512 5.232,24.989 
					5.133,24.989 5.133,21.413 6.022,21.413 6.022,18.634 6.911,18.634 6.911,15.961 6.022,15.961 6.022,13.677 6.121,13.677 
					6.121,15.861 				"/>
			</g>
			<g>
				<rect x="6.022" y="16.557" style="fill:#0071BC;" width="0.099" height="1.402"/>
			</g>
		</g>
		<g>
			<g>
				<path style="fill:#0071BC;" d="M21.869,21.24c0,0.151-0.123,0.274-0.273,0.274s-0.273-0.122-0.273-0.274
					c0-0.15,0.123-0.272,0.273-0.272S21.869,21.09,21.869,21.24z M21.422,21.24c0,0.097,0.077,0.175,0.174,0.175
					c0.097,0,0.174-0.077,0.174-0.175c0-0.095-0.078-0.173-0.174-0.173C21.499,21.067,21.422,21.146,21.422,21.24z"/>
			</g>
			<g>
				<path style="fill:#0071BC;" d="M22.093,22.655c0,0.15-0.123,0.271-0.274,0.271s-0.273-0.121-0.273-0.271
					c0-0.151,0.123-0.274,0.273-0.274S22.093,22.504,22.093,22.655z M21.646,22.655c0,0.095,0.077,0.173,0.174,0.173
					c0.097,0,0.174-0.078,0.174-0.173c0-0.097-0.077-0.175-0.174-0.175C21.722,22.48,21.646,22.558,21.646,22.655z"/>
			</g>
			<g>
				<path style="fill:#0071BC;" d="M22.093,20.065c0,0.151-0.123,0.272-0.274,0.272s-0.273-0.121-0.273-0.272
					c0-0.15,0.123-0.273,0.273-0.273S22.093,19.914,22.093,20.065z M21.646,20.065c0,0.098,0.076,0.173,0.174,0.173
					c0.097,0,0.174-0.077,0.174-0.173c0-0.095-0.077-0.173-0.174-0.173C21.722,19.892,21.646,19.968,21.646,20.065z"/>
			</g>
			<g>
				<path style="fill:#0071BC;" d="M22.981,20.102c0,0.15-0.122,0.272-0.273,0.272c-0.15,0-0.273-0.122-0.273-0.272
					s0.123-0.273,0.273-0.273C22.859,19.829,22.981,19.951,22.981,20.102z M22.534,20.102c0,0.096,0.078,0.173,0.174,0.173
					c0.098,0,0.175-0.075,0.175-0.173c0-0.098-0.077-0.173-0.175-0.173C22.612,19.929,22.534,20.006,22.534,20.102z"/>
			</g>
			<g>
				<path style="fill:#0071BC;" d="M22.981,16.012c0,0.15-0.122,0.274-0.273,0.274c-0.15,0-0.273-0.123-0.273-0.274
					c0-0.151,0.123-0.272,0.273-0.272C22.859,15.739,22.981,15.86,22.981,16.012z M22.534,16.012c0,0.096,0.078,0.174,0.174,0.174
					c0.098,0,0.175-0.077,0.175-0.174c0-0.096-0.078-0.174-0.175-0.174C22.612,15.838,22.534,15.916,22.534,16.012z"/>
			</g>
			<g>
				<path style="fill:#0071BC;" d="M21.869,17.106c0,0.151-0.123,0.274-0.273,0.274s-0.273-0.122-0.273-0.274
					c0-0.15,0.123-0.273,0.273-0.273S21.869,16.956,21.869,17.106z M21.422,17.106c0,0.097,0.077,0.174,0.174,0.174
					c0.096,0,0.174-0.077,0.174-0.174c0-0.096-0.078-0.174-0.174-0.174C21.499,16.933,21.422,17.011,21.422,17.106z"/>
			</g>
			<g>
				<path style="fill:#0071BC;" d="M24.095,17.106c0,0.151-0.123,0.274-0.273,0.274c-0.151,0-0.273-0.122-0.273-0.274
					c0-0.15,0.122-0.273,0.273-0.273C23.972,16.833,24.095,16.956,24.095,17.106z M23.647,17.106c0,0.097,0.077,0.174,0.174,0.174
					c0.096,0,0.174-0.077,0.174-0.174c0-0.096-0.078-0.174-0.174-0.174C23.725,16.933,23.647,17.011,23.647,17.106z"/>
			</g>
			<g>
				<path style="fill:#0071BC;" d="M23.871,9.854c0,0.15-0.123,0.273-0.273,0.273c-0.15,0-0.271-0.123-0.271-0.273
					c0-0.151,0.121-0.273,0.271-0.273C23.748,9.581,23.871,9.704,23.871,9.854z M23.425,9.854c0,0.096,0.078,0.174,0.173,0.174
					c0.096,0,0.174-0.078,0.174-0.174c0-0.097-0.078-0.174-0.174-0.174C23.503,9.68,23.425,9.758,23.425,9.854z"/>
			</g>
			<g>
				<path style="fill:#0071BC;" d="M23.871,17.848c0,0.151-0.123,0.273-0.273,0.273c-0.151,0-0.274-0.122-0.274-0.273
					c0-0.15,0.122-0.273,0.274-0.273C23.748,17.575,23.871,17.697,23.871,17.848z M23.423,17.848c0,0.097,0.078,0.174,0.175,0.174
					c0.097,0,0.174-0.076,0.174-0.174c0-0.095-0.078-0.173-0.174-0.173C23.501,17.675,23.423,17.753,23.423,17.848z"/>
			</g>
			<g>
				<path style="fill:#0071BC;" d="M24.76,11.778c0,0.151-0.123,0.273-0.274,0.273c-0.149,0-0.271-0.123-0.271-0.273
					s0.122-0.273,0.271-0.273C24.637,11.505,24.76,11.627,24.76,11.778z M24.315,11.778c0,0.096,0.077,0.174,0.172,0.174
					c0.097,0,0.174-0.078,0.174-0.174s-0.077-0.174-0.174-0.174C24.392,11.604,24.315,11.682,24.315,11.778z"/>
			</g>
			<g>
				<path style="fill:#0071BC;" d="M24.76,10.306c0,0.151-0.123,0.273-0.274,0.273c-0.149,0-0.271-0.123-0.271-0.273
					c0-0.151,0.122-0.274,0.271-0.274C24.637,10.032,24.76,10.155,24.76,10.306z M24.315,10.306c0,0.096,0.077,0.174,0.172,0.174
					c0.097,0,0.174-0.078,0.174-0.174s-0.077-0.174-0.174-0.174C24.392,10.131,24.315,10.21,24.315,10.306z"/>
			</g>
			<g>
				<path style="fill:#0071BC;" d="M22.981,4.152c0,0.151-0.122,0.273-0.273,0.273c-0.15,0-0.273-0.123-0.273-0.273
					s0.123-0.273,0.273-0.273C22.859,3.879,22.981,4.001,22.981,4.152z M22.534,4.152c0,0.096,0.078,0.174,0.174,0.174
					c0.097,0,0.175-0.078,0.175-0.174c0-0.096-0.078-0.174-0.175-0.174C22.612,3.979,22.534,4.056,22.534,4.152z"/>
			</g>
			<g>
				<path style="fill:#0071BC;" d="M22.093,11.555c0,0.15-0.123,0.273-0.274,0.273s-0.273-0.122-0.273-0.273
					c0-0.151,0.123-0.273,0.273-0.273S22.093,11.404,22.093,11.555z M21.646,11.555c0,0.096,0.077,0.174,0.174,0.174
					c0.097,0,0.174-0.078,0.174-0.174c0-0.097-0.077-0.174-0.174-0.174C21.723,11.38,21.646,11.458,21.646,11.555z"/>
			</g>
			<g>
				<path style="fill:#0071BC;" d="M23.871,6c0,0.151-0.123,0.273-0.273,0.273c-0.151,0-0.274-0.123-0.274-0.273
					c0-0.151,0.122-0.273,0.274-0.273C23.748,5.727,23.871,5.85,23.871,6z M23.423,6c0,0.096,0.078,0.174,0.175,0.174
					c0.096,0,0.174-0.078,0.174-0.174s-0.078-0.174-0.174-0.174C23.501,5.826,23.423,5.904,23.423,6z"/>
			</g>
			<g>
				<path style="fill:#0071BC;" d="M23.871,2.543c0,0.151-0.123,0.273-0.273,0.273c-0.151,0-0.274-0.123-0.274-0.273
					c0-0.151,0.122-0.273,0.274-0.273C23.748,2.27,23.871,2.393,23.871,2.543z M23.423,2.543c0,0.096,0.078,0.174,0.175,0.174
					c0.096,0,0.174-0.078,0.174-0.174c0-0.096-0.078-0.174-0.174-0.174C23.501,2.37,23.423,2.447,23.423,2.543z"/>
			</g>
			<g>
				<polygon style="fill:#0071BC;" points="22.758,21.191 22.758,24.95 22.659,24.95 22.659,21.29 21.819,21.29 21.819,21.191 				
					"/>
			</g>
			<g>
				<rect x="22.659" y="16.235" style="fill:#0071BC;" width="0.099" height="3.673"/>
			</g>
			<g>
				<polygon style="fill:#0071BC;" points="24.536,12.002 24.536,13.783 23.647,13.783 23.647,17.646 23.548,17.646 23.548,13.684 
					24.437,13.684 24.437,12.002 				"/>
			</g>
			<g>
				<polygon style="fill:#0071BC;" points="24.536,7.159 24.536,10.082 24.437,10.082 24.437,7.258 23.647,7.258 23.647,8.389 
					22.659,8.389 22.659,4.376 22.758,4.376 22.758,8.289 23.548,8.289 23.548,7.159 				"/>
			</g>
			<g>
				<polygon style="fill:#0071BC;" points="24.536,3.755 24.536,4.726 23.647,4.726 23.647,5.777 23.548,5.777 23.548,4.627 
					24.437,4.627 24.437,3.855 23.548,3.855 23.548,2.767 23.647,2.767 23.647,3.755 				"/>
			</g>
			<g>
				<rect x="21.77" y="22.878" style="fill:#0071BC;" width="0.1" height="2.072"/>
			</g>
			<g>
				<polygon style="fill:#0071BC;" points="23.647,10.082 23.647,11.989 22.758,11.989 22.758,14.044 21.869,14.044 21.869,15.869 
					20.979,15.869 20.979,17.617 21.869,17.617 21.869,19.846 21.77,19.846 21.77,17.717 20.881,17.717 20.881,15.771 21.77,15.771 
					21.77,13.944 22.659,13.944 22.659,11.89 23.548,11.89 23.548,10.082 				"/>
			</g>
			<g>
				<rect x="21.819" y="17.057" style="fill:#0071BC;" width="1.778" height="0.1"/>
			</g>
			<g>
				<polygon style="fill:#0071BC;" points="22.758,0.05 22.758,3.615 21.869,3.615 21.869,6.383 20.979,6.383 20.979,9.047 
					21.869,9.047 21.869,11.323 21.77,11.323 21.77,9.146 20.881,9.146 20.881,6.284 21.77,6.284 21.77,3.515 22.659,3.515 
					22.659,0.05 				"/>
			</g>
			<g>
				<rect x="21.77" y="7.042" style="fill:#0071BC;" width="0.1" height="1.401"/>
			</g>
		</g>
		<g>
			<rect x="20.116" y="20.759" style="fill:#0071BC;" width="0.1" height="4.191"/>
		</g>
		<g>
			<path style="fill:#0071BC;" d="M20.44,20.511c0,0.151-0.123,0.274-0.274,0.274c-0.151,0-0.273-0.122-0.273-0.274
				c0-0.15,0.122-0.273,0.273-0.273C20.316,20.237,20.44,20.36,20.44,20.511z M19.991,20.511c0,0.097,0.078,0.175,0.175,0.175
				c0.096,0,0.174-0.078,0.174-0.175c0-0.096-0.078-0.174-0.174-0.174C20.069,20.337,19.991,20.415,19.991,20.511z"/>
		</g>
		<g>
			<path style="fill:#0071BC;" d="M20.661,13.957c0,0.15-0.122,0.273-0.271,0.273c-0.151,0-0.273-0.122-0.273-0.273
				s0.122-0.273,0.273-0.273C20.539,13.684,20.661,13.807,20.661,13.957z M20.216,13.957c0,0.098,0.076,0.173,0.174,0.173
				c0.094,0,0.172-0.077,0.172-0.173c0-0.097-0.078-0.174-0.172-0.174C20.293,13.783,20.216,13.86,20.216,13.957z"/>
		</g>
		<g>
			<path style="fill:#0071BC;" d="M19.55,18.352c0,0.151-0.122,0.272-0.273,0.272c-0.15,0-0.274-0.121-0.274-0.272
				c0-0.15,0.123-0.274,0.274-0.274C19.428,18.078,19.55,18.201,19.55,18.352z M19.103,18.352c0,0.096,0.078,0.173,0.174,0.173
				c0.097,0,0.175-0.077,0.175-0.173c0-0.096-0.078-0.174-0.175-0.174C19.18,18.178,19.103,18.255,19.103,18.352z"/>
		</g>
		<g>
			<path style="fill:#0071BC;" d="M20.661,16.235c0,0.15-0.122,0.273-0.271,0.273c-0.151,0-0.273-0.123-0.273-0.273
				c0-0.151,0.122-0.273,0.273-0.273C20.539,15.962,20.661,16.084,20.661,16.235z M20.216,16.235c0,0.096,0.077,0.174,0.174,0.174
				c0.094,0,0.172-0.078,0.172-0.174c0-0.097-0.078-0.175-0.172-0.175C20.293,16.06,20.216,16.139,20.216,16.235z"/>
		</g>
		<g>
			<path style="fill:#0071BC;" d="M14.879,21.24c0,0.151-0.122,0.274-0.273,0.274c-0.149,0-0.271-0.122-0.271-0.274
				c0-0.15,0.121-0.272,0.271-0.272C14.757,20.968,14.879,21.09,14.879,21.24z M14.434,21.24c0,0.097,0.078,0.175,0.172,0.175
				c0.097,0,0.175-0.078,0.175-0.175c0-0.097-0.077-0.173-0.175-0.173C14.512,21.067,14.434,21.146,14.434,21.24z"/>
		</g>
		<g>
			<path style="fill:#0071BC;" d="M15.102,22.654c0,0.15-0.122,0.272-0.273,0.272c-0.15,0-0.273-0.122-0.273-0.272
				c0-0.151,0.122-0.273,0.273-0.273C14.981,22.382,15.102,22.503,15.102,22.654z M14.655,22.654c0,0.096,0.078,0.174,0.174,0.174
				c0.097,0,0.175-0.078,0.175-0.174c0-0.098-0.077-0.174-0.175-0.174C14.733,22.48,14.655,22.559,14.655,22.654z"/>
		</g>
		<g>
			<path style="fill:#0071BC;" d="M15.102,20.065c0,0.151-0.122,0.272-0.273,0.272c-0.15,0-0.273-0.121-0.273-0.272
				c0-0.15,0.122-0.274,0.273-0.274C14.981,19.791,15.102,19.914,15.102,20.065z M14.655,20.065c0,0.096,0.078,0.173,0.174,0.173
				c0.098,0,0.175-0.075,0.175-0.173c0-0.096-0.078-0.174-0.175-0.174C14.733,19.891,14.655,19.969,14.655,20.065z"/>
		</g>
		<g>
			<path style="fill:#0071BC;" d="M15.992,20.102c0,0.15-0.123,0.272-0.273,0.272c-0.15,0-0.271-0.122-0.271-0.272
				s0.121-0.274,0.271-0.274C15.869,19.828,15.992,19.951,15.992,20.102z M15.547,20.102c0,0.096,0.077,0.173,0.172,0.173
				c0.097,0,0.174-0.075,0.174-0.173c0-0.097-0.078-0.174-0.174-0.174C15.624,19.928,15.547,20.005,15.547,20.102z"/>
		</g>
		<g>
			<path style="fill:#0071BC;" d="M15.992,16.012c0,0.15-0.123,0.274-0.273,0.274c-0.15,0-0.271-0.123-0.271-0.274
				c0-0.151,0.121-0.272,0.271-0.272C15.869,15.739,15.992,15.86,15.992,16.012z M15.547,16.012c0,0.096,0.077,0.174,0.172,0.174
				c0.097,0,0.174-0.077,0.174-0.174c0-0.098-0.077-0.174-0.174-0.174C15.624,15.838,15.547,15.916,15.547,16.012z"/>
		</g>
		<g>
			<path style="fill:#0071BC;" d="M14.879,17.106c0,0.151-0.122,0.273-0.273,0.273c-0.149,0-0.271-0.121-0.271-0.273
				c0-0.15,0.121-0.273,0.271-0.273C14.757,16.833,14.879,16.956,14.879,17.106z M14.434,17.106c0,0.096,0.078,0.173,0.172,0.173
				c0.098,0,0.175-0.075,0.175-0.173c0-0.096-0.078-0.174-0.175-0.174C14.512,16.933,14.434,17.011,14.434,17.106z"/>
		</g>
		<g>
			<path style="fill:#0071BC;" d="M17.104,17.106c0,0.151-0.122,0.273-0.273,0.273c-0.15,0-0.274-0.121-0.274-0.273
				c0-0.15,0.123-0.273,0.274-0.273C16.982,16.833,17.104,16.956,17.104,17.106z M16.657,17.106c0,0.096,0.078,0.173,0.174,0.173
				c0.098,0,0.175-0.075,0.175-0.173c0-0.096-0.078-0.174-0.175-0.174C16.735,16.933,16.657,17.011,16.657,17.106z"/>
		</g>
		<g>
			<path style="fill:#0071BC;" d="M16.881,9.854c0,0.15-0.121,0.273-0.271,0.273s-0.274-0.123-0.274-0.273
				c0-0.151,0.123-0.273,0.274-0.273S16.881,9.704,16.881,9.854z M16.435,9.854c0,0.096,0.078,0.174,0.174,0.174
				c0.095,0,0.173-0.078,0.173-0.174c0-0.097-0.078-0.174-0.173-0.174C16.514,9.68,16.435,9.758,16.435,9.854z"/>
		</g>
		<g>
			<path style="fill:#0071BC;" d="M16.881,17.848c0,0.151-0.122,0.273-0.273,0.273c-0.149,0-0.272-0.122-0.272-0.273
				c0-0.15,0.122-0.273,0.272-0.273C16.759,17.575,16.881,17.697,16.881,17.848z M16.435,17.848c0,0.097,0.078,0.174,0.172,0.174
				c0.097,0,0.175-0.077,0.175-0.174c0-0.097-0.077-0.173-0.175-0.173C16.514,17.675,16.435,17.753,16.435,17.848z"/>
		</g>
		<g>
			<path style="fill:#0071BC;" d="M17.77,11.778c0,0.151-0.121,0.273-0.271,0.273c-0.151,0-0.273-0.123-0.273-0.273
				s0.122-0.273,0.273-0.273C17.648,11.505,17.77,11.627,17.77,11.778z M17.324,11.778c0,0.096,0.078,0.174,0.175,0.174
				c0.094,0,0.172-0.078,0.172-0.174s-0.078-0.174-0.172-0.174C17.402,11.604,17.324,11.682,17.324,11.778z"/>
		</g>
		<g>
			<path style="fill:#0071BC;" d="M17.77,10.306c0,0.151-0.121,0.273-0.271,0.273c-0.151,0-0.273-0.123-0.273-0.273
				c0-0.151,0.122-0.274,0.273-0.274C17.648,10.032,17.77,10.155,17.77,10.306z M17.324,10.306c0,0.096,0.078,0.174,0.175,0.174
				c0.094,0,0.172-0.078,0.172-0.174s-0.078-0.174-0.172-0.174C17.402,10.131,17.324,10.21,17.324,10.306z"/>
		</g>
		<g>
			<path style="fill:#0071BC;" d="M15.992,4.152c0,0.151-0.123,0.273-0.273,0.273c-0.15,0-0.271-0.123-0.271-0.273
				s0.121-0.273,0.271-0.273C15.869,3.879,15.992,4.001,15.992,4.152z M15.547,4.152c0,0.096,0.077,0.174,0.172,0.174
				c0.096,0,0.174-0.078,0.174-0.174c0-0.096-0.078-0.174-0.174-0.174C15.624,3.979,15.547,4.056,15.547,4.152z"/>
		</g>
		<g>
			<path style="fill:#0071BC;" d="M15.102,11.555c0,0.15-0.122,0.273-0.273,0.273c-0.15,0-0.273-0.122-0.273-0.273
				c0-0.151,0.122-0.273,0.273-0.273C14.981,11.281,15.102,11.404,15.102,11.555z M14.655,11.555c0,0.096,0.078,0.174,0.174,0.174
				c0.097,0,0.175-0.078,0.175-0.174c0-0.097-0.078-0.174-0.175-0.174C14.733,11.38,14.655,11.458,14.655,11.555z"/>
		</g>
		<g>
			<path style="fill:#0071BC;" d="M16.881,6c0,0.151-0.122,0.273-0.273,0.273c-0.149,0-0.272-0.123-0.272-0.273
				c0-0.151,0.122-0.273,0.272-0.273C16.759,5.727,16.881,5.85,16.881,6z M16.435,6c0,0.096,0.078,0.174,0.172,0.174
				c0.097,0,0.175-0.078,0.175-0.174s-0.078-0.174-0.175-0.174C16.514,5.826,16.435,5.904,16.435,6z"/>
		</g>
		<g>
			<path style="fill:#0071BC;" d="M16.881,2.543c0,0.151-0.122,0.273-0.273,0.273c-0.149,0-0.272-0.123-0.272-0.273
				c0-0.151,0.122-0.273,0.272-0.273C16.759,2.27,16.881,2.393,16.881,2.543z M16.435,2.543c0,0.096,0.078,0.174,0.172,0.174
				c0.097,0,0.175-0.078,0.175-0.174c0-0.096-0.078-0.174-0.175-0.174C16.514,2.37,16.435,2.447,16.435,2.543z"/>
		</g>
		<g>
			<path style="fill:#0071BC;" d="M19.55,12.5c0,0.151-0.122,0.273-0.273,0.273c-0.15,0-0.274-0.123-0.274-0.273
				s0.123-0.273,0.274-0.273C19.428,12.227,19.55,12.349,19.55,12.5z M19.103,12.5c0,0.096,0.078,0.174,0.174,0.174
				c0.097,0,0.175-0.078,0.175-0.174s-0.078-0.174-0.175-0.174C19.181,12.326,19.103,12.404,19.103,12.5z"/>
		</g>
		<g>
			<path style="fill:#0071BC;" d="M18.438,9.076c0,0.151-0.123,0.273-0.273,0.273s-0.274-0.123-0.274-0.273s0.123-0.273,0.274-0.273
				S18.438,8.925,18.438,9.076z M17.99,9.076c0,0.096,0.077,0.174,0.174,0.174c0.096,0,0.174-0.078,0.174-0.174
				c0-0.096-0.078-0.174-0.174-0.174C18.067,8.902,17.99,8.98,17.99,9.076z"/>
		</g>
		<g>
			<path style="fill:#0071BC;" d="M19.548,8.304c0,0.151-0.121,0.273-0.271,0.273s-0.274-0.123-0.274-0.273s0.123-0.273,0.274-0.273
				S19.548,8.153,19.548,8.304z M19.103,8.304c0,0.096,0.078,0.174,0.174,0.174c0.095,0,0.173-0.078,0.173-0.174
				S19.371,8.13,19.276,8.13C19.181,8.13,19.103,8.208,19.103,8.304z"/>
		</g>
		<g>
			<path style="fill:#0071BC;" d="M18.659,4.864c0,0.151-0.122,0.273-0.272,0.273c-0.15,0-0.273-0.123-0.273-0.273
				c0-0.15,0.123-0.273,0.273-0.273C18.537,4.591,18.659,4.714,18.659,4.864z M18.214,4.864c0,0.097,0.077,0.174,0.174,0.174
				c0.095,0,0.172-0.078,0.172-0.174c0-0.096-0.077-0.174-0.172-0.174C18.291,4.69,18.214,4.768,18.214,4.864z"/>
		</g>
		<g>
			<path style="fill:#0071BC;" d="M19.548,3.448c0,0.151-0.121,0.273-0.271,0.273s-0.274-0.123-0.274-0.273
				c0-0.151,0.123-0.273,0.274-0.273S19.548,3.297,19.548,3.448z M19.103,3.448c0,0.096,0.078,0.174,0.174,0.174
				c0.095,0,0.173-0.078,0.173-0.174s-0.078-0.174-0.173-0.174C19.181,3.274,19.103,3.352,19.103,3.448z"/>
		</g>
		<g>
			<path style="fill:#0071BC;" d="M17.77,0.273c0,0.151-0.121,0.273-0.271,0.273c-0.151,0-0.273-0.123-0.273-0.273
				C17.226,0.123,17.348,0,17.499,0C17.648,0,17.77,0.123,17.77,0.273z M17.324,0.273c0,0.096,0.078,0.174,0.175,0.174
				c0.094,0,0.172-0.078,0.172-0.174c0-0.096-0.078-0.174-0.172-0.174C17.401,0.099,17.324,0.176,17.324,0.273z"/>
		</g>
		<g>
			<path style="fill:#0071BC;" d="M20.44,8.63c0,0.15-0.123,0.273-0.274,0.273c-0.151,0-0.273-0.123-0.273-0.273
				c0-0.151,0.122-0.273,0.273-0.273C20.316,8.356,20.44,8.479,20.44,8.63z M19.991,8.63c0,0.096,0.078,0.174,0.175,0.174
				c0.096,0,0.174-0.078,0.174-0.174c0-0.097-0.078-0.174-0.174-0.174C20.069,8.456,19.991,8.533,19.991,8.63z"/>
		</g>
		<g>
			<path style="fill:#0071BC;" d="M20.44,1.258c0,0.151-0.123,0.273-0.274,0.273c-0.151,0-0.273-0.123-0.273-0.273
				s0.122-0.273,0.273-0.273C20.316,0.984,20.44,1.107,20.44,1.258z M19.991,1.258c0,0.096,0.078,0.174,0.175,0.174
				c0.096,0,0.174-0.078,0.174-0.174s-0.078-0.174-0.174-0.174C20.069,1.084,19.991,1.162,19.991,1.258z"/>
		</g>
		<g>
			<path style="fill:#0071BC;" d="M19.548,9.558c0,0.151-0.121,0.273-0.271,0.273s-0.274-0.123-0.274-0.273s0.123-0.273,0.274-0.273
				S19.548,9.407,19.548,9.558z M19.103,9.558c0,0.096,0.078,0.174,0.174,0.174c0.095,0,0.173-0.078,0.173-0.174
				c0-0.096-0.078-0.174-0.173-0.174C19.181,9.383,19.103,9.461,19.103,9.558z"/>
		</g>
		<g>
			<path style="fill:#0071BC;" d="M18.659,12.599c0,0.151-0.122,0.273-0.272,0.273c-0.15,0-0.273-0.123-0.273-0.273
				s0.123-0.273,0.273-0.273C18.537,12.326,18.659,12.448,18.659,12.599z M18.214,12.599c0,0.096,0.077,0.174,0.174,0.174
				c0.095,0,0.172-0.078,0.172-0.174s-0.077-0.174-0.172-0.174C18.291,12.425,18.214,12.503,18.214,12.599z"/>
		</g>
		<g>
			<path style="fill:#0071BC;" d="M18.659,21.646c0,0.15-0.122,0.273-0.272,0.273c-0.15,0-0.273-0.123-0.273-0.273
				c0-0.151,0.123-0.273,0.273-0.273C18.537,21.373,18.659,21.494,18.659,21.646z M18.214,21.646c0,0.096,0.077,0.174,0.174,0.174
				c0.095,0,0.172-0.078,0.172-0.174s-0.077-0.174-0.172-0.174C18.29,21.472,18.214,21.548,18.214,21.646z"/>
		</g>
		<g>
			<rect x="19.228" y="18.538" style="fill:#0071BC;" width="0.099" height="6.412"/>
		</g>
		<g>
			<rect x="18.338" y="21.869" style="fill:#0071BC;" width="0.1" height="3.081"/>
		</g>
		<g>
			<polygon style="fill:#0071BC;" points="20.166,16.185 20.166,16.285 18.438,16.285 18.438,19.855 17.548,19.855 17.548,24.95 
				17.449,24.95 17.449,19.756 18.338,19.756 18.338,16.185 			"/>
		</g>
		<g>
			<polygon style="fill:#0071BC;" points="20.166,13.907 20.166,14.007 19.228,14.007 19.228,13.11 18.438,13.11 18.438,14.729 
				17.548,14.729 17.548,18.37 16.657,18.37 16.657,24.95 16.558,24.95 16.558,18.271 17.449,18.271 17.449,14.629 18.338,14.629 
				18.338,13.011 19.326,13.011 19.326,13.907 			"/>
		</g>
		<g>
			<polygon style="fill:#0071BC;" points="15.769,21.191 15.769,24.95 15.669,24.95 15.669,21.29 14.829,21.29 14.829,21.191 			"/>
		</g>
		<g>
			<rect x="15.669" y="16.235" style="fill:#0071BC;" width="0.1" height="3.673"/>
		</g>
		<g>
			<polygon style="fill:#0071BC;" points="17.548,12.002 17.548,13.783 16.657,13.783 16.657,17.646 16.558,17.646 16.558,13.684 
				17.449,13.684 17.449,12.002 			"/>
		</g>
		<g>
			<polygon style="fill:#0071BC;" points="20.216,9.026 20.216,10.713 19.326,10.713 19.326,12.282 19.228,12.282 19.228,10.614 
				20.116,10.614 20.116,9.126 18.388,9.126 18.388,9.026 			"/>
		</g>
		<g>
			<polygon style="fill:#0071BC;" points="19.326,9.781 19.326,10.287 18.438,10.287 18.438,12.375 18.338,12.375 18.338,10.188 
				19.228,10.188 19.228,9.781 			"/>
		</g>
		<g>
			<polygon style="fill:#0071BC;" points="17.548,7.159 17.548,10.082 17.449,10.082 17.449,7.258 16.657,7.258 16.657,8.389 
				15.669,8.389 15.669,4.376 15.769,4.376 15.769,8.289 16.558,8.289 16.558,7.159 			"/>
		</g>
		<g>
			<polygon style="fill:#0071BC;" points="17.548,3.755 17.548,4.726 16.657,4.726 16.657,5.777 16.558,5.777 16.558,4.627 
				17.449,4.627 17.449,3.855 16.56,3.855 16.56,2.767 16.659,2.767 16.659,3.755 			"/>
		</g>
		<g>
			<polygon style="fill:#0071BC;" points="20.216,1.481 20.216,4.202 19.326,4.202 19.326,5.951 20.216,5.951 20.216,8.392 
				20.116,8.392 20.116,6.05 19.228,6.05 19.228,4.103 20.116,4.103 20.116,1.481 			"/>
		</g>
		<g>
			<polygon style="fill:#0071BC;" points="19.326,6.516 19.326,8.08 19.228,8.08 19.228,6.615 18.338,6.615 18.338,5.072 
				18.438,5.072 18.438,6.516 			"/>
		</g>
		<g>
			<polygon style="fill:#0071BC;" points="19.326,1.743 19.326,3.225 19.228,3.225 19.228,1.842 18.438,1.842 18.438,2.558 
				17.449,2.558 17.449,0.555 17.548,0.555 17.548,2.459 18.338,2.459 18.338,1.743 			"/>
		</g>
		<g>
			<rect x="14.78" y="22.878" style="fill:#0071BC;" width="0.099" height="2.072"/>
		</g>
		<g>
			<polygon style="fill:#0071BC;" points="16.659,10.082 16.659,11.989 15.769,11.989 15.769,14.044 14.879,14.044 14.879,15.869 
				13.99,15.869 13.99,17.617 14.879,17.617 14.879,19.846 14.78,19.846 14.78,17.717 13.891,17.717 13.891,15.771 14.78,15.771 
				14.78,13.944 15.669,13.944 15.669,11.89 16.56,11.89 16.56,10.082 			"/>
		</g>
		<g>
			<g>
				<g>
					<path style="fill:#0071BC;" d="M20.661,15.348c0,0.151-0.122,0.272-0.271,0.272c-0.151,0-0.273-0.121-0.273-0.272
						c0-0.15,0.122-0.274,0.273-0.274C20.539,15.074,20.661,15.197,20.661,15.348z M20.216,15.348c0,0.098,0.076,0.174,0.174,0.174
						c0.094,0,0.172-0.078,0.172-0.174s-0.078-0.174-0.172-0.174C20.293,15.174,20.216,15.252,20.216,15.348z"/>
				</g>
				<g>
					<path style="fill:#0071BC;" d="M18.438,15.348c0,0.151-0.123,0.272-0.273,0.272s-0.274-0.121-0.274-0.272
						c0-0.15,0.123-0.274,0.274-0.274S18.438,15.197,18.438,15.348z M17.99,15.348c0,0.098,0.076,0.174,0.174,0.174
						c0.096,0,0.174-0.078,0.174-0.174s-0.078-0.174-0.174-0.174C18.067,15.174,17.99,15.252,17.99,15.348z"/>
				</g>
			</g>
			<g>
				<rect x="18.388" y="15.299" style="fill:#0071BC;" width="1.778" height="0.099"/>
			</g>
		</g>
		<g>
			<g>
				<g>
					<path style="fill:#0071BC;" d="M8.296,22.01c0,0.151-0.122,0.272-0.271,0.272c-0.151,0-0.273-0.121-0.273-0.272
						c0-0.15,0.123-0.274,0.273-0.274C8.174,21.736,8.296,21.859,8.296,22.01z M7.851,22.01c0,0.098,0.077,0.173,0.174,0.173
						c0.094,0,0.172-0.077,0.172-0.173s-0.078-0.174-0.172-0.174C7.928,21.836,7.851,21.914,7.851,22.01z"/>
				</g>
				<g>
					<path style="fill:#0071BC;" d="M6.072,22.01c0,0.151-0.123,0.272-0.273,0.272c-0.151,0-0.273-0.121-0.273-0.272
						c0-0.15,0.123-0.274,0.273-0.274C5.95,21.736,6.072,21.859,6.072,22.01z M5.625,22.01c0,0.098,0.077,0.173,0.174,0.173
						c0.096,0,0.174-0.077,0.174-0.173s-0.078-0.174-0.174-0.174C5.703,21.836,5.625,21.914,5.625,22.01z"/>
				</g>
			</g>
			<g>
				<rect x="6.023" y="21.96" style="fill:#0071BC;" width="1.778" height="0.1"/>
			</g>
		</g>
		<g>
			<g>
				<g>
					<path style="fill:#0071BC;" d="M6.912,22.139c0.15,0,0.272,0.121,0.272,0.271c0,0.15-0.122,0.272-0.272,0.272
						c-0.151,0-0.273-0.122-0.273-0.272C6.639,22.26,6.761,22.139,6.912,22.139z M6.912,22.584c0.097,0,0.173-0.077,0.173-0.174
						c0-0.095-0.078-0.173-0.173-0.173c-0.097,0-0.174,0.078-0.174,0.173C6.738,22.506,6.815,22.584,6.912,22.584z"/>
				</g>
				<g>
					<path style="fill:#0071BC;" d="M6.912,24.362c0.15,0,0.272,0.122,0.272,0.272c0,0.151-0.122,0.273-0.272,0.273
						c-0.151,0-0.273-0.122-0.273-0.273C6.639,24.484,6.761,24.362,6.912,24.362z M6.912,24.81c0.097,0,0.173-0.077,0.173-0.175
						c0-0.096-0.078-0.174-0.173-0.174c-0.097,0-0.174,0.078-0.174,0.174C6.738,24.731,6.815,24.81,6.912,24.81z"/>
				</g>
			</g>
			<g>
				<rect x="6.862" y="22.634" style="fill:#0071BC;" width="0.099" height="1.777"/>
			</g>
		</g>
		<g>
			<g>
				<g>
					<path style="fill:#0071BC;" d="M6.912,9.658c0.15,0,0.272,0.122,0.272,0.271c0,0.151-0.122,0.273-0.272,0.273
						c-0.151,0-0.273-0.122-0.273-0.273C6.639,9.779,6.761,9.658,6.912,9.658z M6.912,10.104c0.097,0,0.173-0.077,0.173-0.174
						c0-0.094-0.078-0.172-0.173-0.172c-0.097,0-0.174,0.078-0.174,0.172C6.738,10.025,6.815,10.104,6.912,10.104z"/>
				</g>
				<g>
					<path style="fill:#0071BC;" d="M6.912,11.881c0.15,0,0.272,0.123,0.272,0.274c0,0.151-0.122,0.273-0.272,0.273
						c-0.151,0-0.273-0.122-0.273-0.273C6.639,12.004,6.761,11.881,6.912,11.881z M6.912,12.329c0.097,0,0.173-0.077,0.173-0.174
						c0-0.096-0.078-0.174-0.173-0.174c-0.097,0-0.174,0.078-0.174,0.174S6.815,12.329,6.912,12.329z"/>
				</g>
			</g>
			<g>
				<rect x="6.862" y="10.153" style="fill:#0071BC;" width="0.099" height="1.778"/>
			</g>
		</g>
		<g>
			<g>
				<g>
					<path style="fill:#0071BC;" d="M20.882,10.393c0.15,0,0.273,0.122,0.273,0.272c0,0.151-0.122,0.273-0.273,0.273
						c-0.151,0-0.273-0.123-0.273-0.273C20.608,10.515,20.73,10.393,20.882,10.393z M20.882,10.839c0.097,0,0.173-0.077,0.173-0.174
						c0-0.094-0.078-0.172-0.173-0.172c-0.097,0-0.174,0.078-0.174,0.172C20.708,10.761,20.785,10.839,20.882,10.839z"/>
				</g>
				<g>
					<path style="fill:#0071BC;" d="M20.882,12.617c0.15,0,0.273,0.123,0.273,0.273c0,0.151-0.122,0.273-0.273,0.273
						c-0.151,0-0.273-0.122-0.273-0.273C20.608,12.739,20.73,12.617,20.882,12.617z M20.882,13.064c0.097,0,0.173-0.077,0.173-0.174
						c0-0.096-0.078-0.174-0.173-0.174c-0.097,0-0.174,0.078-0.174,0.174C20.708,12.986,20.785,13.064,20.882,13.064z"/>
				</g>
			</g>
			<g>
				<rect x="20.832" y="10.888" style="fill:#0071BC;" width="0.1" height="1.778"/>
			</g>
		</g>
		<g>
			<g>
				<g>
					<path style="fill:#0071BC;" d="M23.648,21.335c0.15,0,0.272,0.121,0.272,0.271c0,0.15-0.121,0.274-0.272,0.274
						c-0.151,0-0.273-0.123-0.273-0.274C23.375,21.456,23.497,21.335,23.648,21.335z M23.648,21.78c0.097,0,0.173-0.077,0.173-0.174
						c0-0.095-0.078-0.172-0.173-0.172c-0.097,0-0.175,0.077-0.175,0.172C23.474,21.702,23.552,21.78,23.648,21.78z"/>
				</g>
				<g>
					<path style="fill:#0071BC;" d="M23.648,23.559c0.15,0,0.272,0.122,0.272,0.273c0,0.15-0.121,0.273-0.272,0.273
						c-0.151,0-0.273-0.123-0.273-0.273C23.375,23.681,23.497,23.559,23.648,23.559z M23.648,24.006
						c0.097,0,0.173-0.077,0.173-0.174c0-0.097-0.078-0.175-0.173-0.175c-0.097,0-0.175,0.078-0.175,0.175
						C23.474,23.928,23.552,24.006,23.648,24.006z"/>
				</g>
			</g>
			<g>
				<rect x="23.599" y="21.83" style="fill:#0071BC;" width="0.099" height="1.778"/>
			</g>
		</g>
		<g>
			<g>
				<g>
					<path style="fill:#0071BC;" d="M14.164,0.505c0.151,0,0.272,0.122,0.272,0.271c0,0.15-0.121,0.273-0.272,0.273
						c-0.15,0-0.273-0.123-0.273-0.273C13.891,0.626,14.014,0.505,14.164,0.505z M14.164,0.95c0.098,0,0.174-0.077,0.174-0.174
						c0-0.095-0.078-0.172-0.174-0.172c-0.096,0-0.174,0.078-0.174,0.172C13.99,0.873,14.068,0.95,14.164,0.95z"/>
				</g>
				<g>
					<path style="fill:#0071BC;" d="M14.164,2.729c0.151,0,0.272,0.123,0.272,0.273c0,0.15-0.121,0.273-0.272,0.273
						c-0.15,0-0.273-0.123-0.273-0.273C13.891,2.851,14.014,2.729,14.164,2.729z M14.164,3.176c0.098,0,0.174-0.077,0.174-0.174
						c0-0.097-0.078-0.174-0.174-0.174c-0.096,0-0.174,0.078-0.174,0.174C13.99,3.098,14.068,3.176,14.164,3.176z"/>
				</g>
			</g>
			<g>
				<rect x="14.114" y="1" style="fill:#0071BC;" width="0.1" height="1.778"/>
			</g>
		</g>
		<g>
			<g>
				<g>
					<path style="fill:#0071BC;" d="M21.317,0.505c0.15,0,0.272,0.122,0.272,0.271c0,0.15-0.122,0.273-0.272,0.273
						s-0.274-0.123-0.274-0.273C21.044,0.626,21.167,0.505,21.317,0.505z M21.317,0.95c0.098,0,0.173-0.077,0.173-0.174
						c0-0.095-0.077-0.172-0.173-0.172c-0.097,0-0.174,0.078-0.174,0.172C21.144,0.873,21.221,0.95,21.317,0.95z"/>
				</g>
				<g>
					<path style="fill:#0071BC;" d="M21.317,2.729c0.15,0,0.272,0.123,0.272,0.273c0,0.15-0.122,0.273-0.272,0.273
						s-0.274-0.123-0.274-0.273C21.044,2.851,21.167,2.729,21.317,2.729z M21.317,3.176c0.098,0,0.173-0.077,0.173-0.174
						c0-0.097-0.077-0.174-0.173-0.174c-0.097,0-0.174,0.078-0.174,0.174C21.144,3.098,21.221,3.176,21.317,3.176z"/>
				</g>
			</g>
			<g>
				<rect x="21.268" y="1" style="fill:#0071BC;" width="0.1" height="1.778"/>
			</g>
		</g>
		<g>
			<g>
				<g>
					<path style="fill:#0071BC;" d="M24.368,0.504c0.15,0,0.271,0.122,0.271,0.271c0,0.15-0.121,0.273-0.271,0.273
						c-0.151,0-0.274-0.123-0.274-0.273C24.095,0.625,24.217,0.504,24.368,0.504z M24.368,0.949c0.097,0,0.173-0.077,0.173-0.174
						c0-0.095-0.078-0.172-0.173-0.172c-0.097,0-0.175,0.078-0.175,0.172C24.193,0.872,24.271,0.949,24.368,0.949z"/>
				</g>
				<g>
					<path style="fill:#0071BC;" d="M24.368,2.728c0.15,0,0.271,0.123,0.271,0.273c0,0.15-0.121,0.273-0.271,0.273
						c-0.151,0-0.274-0.123-0.274-0.273C24.095,2.85,24.217,2.728,24.368,2.728z M24.368,3.175c0.097,0,0.173-0.077,0.173-0.174
						c0-0.097-0.078-0.174-0.173-0.174c-0.097,0-0.175,0.078-0.175,0.174C24.193,3.097,24.271,3.175,24.368,3.175z"/>
				</g>
			</g>
			<g>
				<rect x="24.318" y="0.999" style="fill:#0071BC;" width="0.099" height="1.778"/>
			</g>
		</g>
		<g>
			<g>
				<g>
					<path style="fill:#0071BC;" d="M24.368,18.23c0.15,0,0.271,0.121,0.271,0.272c0,0.15-0.121,0.272-0.271,0.272
						c-0.151,0-0.274-0.122-0.274-0.272C24.095,18.352,24.217,18.23,24.368,18.23z M24.368,18.676c0.097,0,0.173-0.077,0.173-0.174
						c0-0.095-0.078-0.173-0.173-0.173c-0.097,0-0.175,0.078-0.175,0.173C24.193,18.598,24.271,18.676,24.368,18.676z"/>
				</g>
				<g>
					<path style="fill:#0071BC;" d="M24.368,20.454c0.15,0,0.271,0.122,0.271,0.273c0,0.151-0.121,0.273-0.271,0.273
						c-0.151,0-0.274-0.122-0.274-0.273C24.095,20.576,24.217,20.454,24.368,20.454z M24.368,20.901
						c0.097,0,0.173-0.077,0.173-0.175c0-0.096-0.078-0.174-0.173-0.174c-0.097,0-0.175,0.078-0.175,0.174
						C24.193,20.823,24.271,20.901,24.368,20.901z"/>
				</g>
			</g>
			<g>
				<rect x="24.318" y="18.726" style="fill:#0071BC;" width="0.099" height="1.777"/>
			</g>
		</g>
		<g>
			<g>
				<g>
					<path style="fill:#0071BC;" d="M13.892,11.836c0.151,0,0.273,0.122,0.273,0.271c0,0.151-0.121,0.273-0.273,0.273
						c-0.15,0-0.273-0.123-0.273-0.273C13.618,11.958,13.741,11.836,13.892,11.836z M13.892,12.282c0.098,0,0.174-0.077,0.174-0.174
						c0-0.094-0.078-0.172-0.174-0.172c-0.096,0-0.174,0.078-0.174,0.172C13.718,12.204,13.796,12.282,13.892,12.282z"/>
				</g>
				<g>
					<path style="fill:#0071BC;" d="M13.892,14.061c0.151,0,0.273,0.122,0.273,0.273c0,0.15-0.121,0.272-0.273,0.272
						c-0.15,0-0.273-0.122-0.273-0.272C13.618,14.183,13.741,14.061,13.892,14.061z M13.892,14.508c0.098,0,0.174-0.077,0.174-0.174
						c0-0.097-0.078-0.175-0.174-0.175c-0.096,0-0.174,0.078-0.174,0.175C13.718,14.43,13.796,14.508,13.892,14.508z"/>
				</g>
			</g>
			<g>
				<rect x="13.843" y="12.332" style="fill:#0071BC;" width="0.099" height="1.778"/>
			</g>
		</g>
		<g>
			<g>
				<g>
					<path style="fill:#0071BC;" d="M20.39,16.967c0.15,0,0.272,0.121,0.272,0.271s-0.122,0.273-0.272,0.273
						c-0.151,0-0.273-0.123-0.273-0.273S20.238,16.967,20.39,16.967z M20.39,17.412c0.097,0,0.173-0.077,0.173-0.174
						c0-0.095-0.078-0.173-0.173-0.173c-0.097,0-0.174,0.078-0.174,0.173C20.216,17.334,20.293,17.412,20.39,17.412z"/>
				</g>
				<g>
					<path style="fill:#0071BC;" d="M20.39,19.19c0.15,0,0.272,0.122,0.272,0.274c0,0.15-0.122,0.272-0.272,0.272
						c-0.151,0-0.273-0.122-0.273-0.272C20.116,19.313,20.238,19.19,20.39,19.19z M20.39,19.638c0.097,0,0.173-0.077,0.173-0.174
						c0-0.097-0.078-0.175-0.173-0.175c-0.097,0-0.174,0.078-0.174,0.175C20.216,19.56,20.293,19.638,20.39,19.638z"/>
				</g>
			</g>
			<g>
				<rect x="20.34" y="17.462" style="fill:#0071BC;" width="0.1" height="1.778"/>
			</g>
		</g>
		<g>
			<rect x="14.829" y="17.057" style="fill:#0071BC;" width="1.78" height="0.1"/>
		</g>
		<g>
			<polygon style="fill:#0071BC;" points="15.769,0.05 15.769,3.615 14.879,3.615 14.879,6.383 13.99,6.383 13.99,9.047 
				14.879,9.047 14.879,11.323 14.78,11.323 14.78,9.146 13.891,9.146 13.891,6.284 14.78,6.284 14.78,3.515 15.669,3.515 
				15.669,0.05 			"/>
		</g>
		<g>
			<rect x="14.78" y="7.042" style="fill:#0071BC;" width="0.099" height="1.401"/>
		</g>
		<g>
			<g>
				<rect x="13.136" y="0.05" style="fill:#0071BC;" width="0.1" height="4.191"/>
			</g>
			<g>
				<path style="fill:#0071BC;" d="M13.459,4.489c0,0.151-0.122,0.273-0.273,0.273c-0.15,0-0.273-0.123-0.273-0.273
					c0-0.15,0.123-0.272,0.273-0.272C13.337,4.217,13.459,4.338,13.459,4.489z M13.012,4.489c0,0.097,0.078,0.174,0.174,0.174
					c0.097,0,0.174-0.078,0.174-0.174c0-0.095-0.077-0.173-0.174-0.173C13.089,4.316,13.012,4.392,13.012,4.489z"/>
			</g>
			<g>
				<path style="fill:#0071BC;" d="M13.681,11.043c0,0.151-0.121,0.273-0.272,0.273s-0.273-0.123-0.273-0.273
					c0-0.151,0.123-0.273,0.273-0.273S13.681,10.892,13.681,11.043z M13.235,11.043c0,0.096,0.078,0.174,0.174,0.174
					c0.095,0,0.173-0.078,0.173-0.174c0-0.095-0.078-0.173-0.173-0.173C13.313,10.87,13.235,10.946,13.235,11.043z"/>
			</g>
			<g>
				<path style="fill:#0071BC;" d="M12.57,6.649c0,0.151-0.123,0.272-0.273,0.272c-0.151,0-0.273-0.122-0.273-0.272
					c0-0.151,0.123-0.273,0.273-0.273C12.447,6.376,12.57,6.499,12.57,6.649z M12.123,6.649c0,0.097,0.076,0.173,0.174,0.173
					c0.095,0,0.174-0.078,0.174-0.173c0-0.096-0.079-0.174-0.174-0.174C12.2,6.475,12.123,6.553,12.123,6.649z"/>
			</g>
			<g>
				<path style="fill:#0071BC;" d="M13.681,8.765c0,0.151-0.121,0.273-0.272,0.273s-0.273-0.123-0.273-0.273
					c0-0.15,0.123-0.272,0.273-0.272S13.681,8.614,13.681,8.765z M13.235,8.765c0,0.097,0.078,0.174,0.174,0.174
					c0.095,0,0.173-0.078,0.173-0.174c0-0.095-0.078-0.173-0.173-0.173C13.313,8.592,13.235,8.667,13.235,8.765z"/>
			</g>
			<g>
				<path style="fill:#0071BC;" d="M13.681,9.652c0,0.151-0.121,0.273-0.272,0.273s-0.273-0.123-0.273-0.273
					c0-0.151,0.123-0.272,0.273-0.272S13.681,9.501,13.681,9.652z M13.235,9.652c0,0.096,0.078,0.174,0.174,0.174
					c0.095,0,0.173-0.078,0.173-0.174c0-0.095-0.078-0.173-0.173-0.173C13.313,9.479,13.235,9.555,13.235,9.652z"/>
			</g>
			<g>
				<path style="fill:#0071BC;" d="M11.458,9.652c0,0.151-0.123,0.273-0.273,0.273s-0.274-0.123-0.274-0.273
					c0-0.151,0.123-0.273,0.274-0.273S11.458,9.501,11.458,9.652z M11.01,9.652c0,0.096,0.078,0.174,0.174,0.174
					c0.095,0,0.174-0.078,0.174-0.174c0-0.096-0.079-0.174-0.174-0.174C11.088,9.478,11.01,9.556,11.01,9.652z"/>
			</g>
			<g>
				<path style="fill:#0071BC;" d="M7.899,3.759c0,0.151-0.123,0.272-0.273,0.272c-0.15,0-0.271-0.122-0.271-0.272
					c0-0.15,0.122-0.273,0.271-0.273C7.777,3.486,7.899,3.609,7.899,3.759z M7.454,3.759c0,0.096,0.077,0.173,0.172,0.173
					c0.097,0,0.174-0.076,0.174-0.173c0-0.096-0.079-0.174-0.174-0.174C7.531,3.585,7.454,3.663,7.454,3.759z"/>
			</g>
			<g>
				<path style="fill:#0071BC;" d="M8.123,2.345C8.123,2.496,8,2.619,7.85,2.619c-0.151,0-0.273-0.123-0.273-0.273
					c0-0.151,0.123-0.272,0.273-0.272C8,2.073,8.123,2.194,8.123,2.345z M7.675,2.345c0,0.096,0.078,0.174,0.174,0.174
					c0.097,0,0.174-0.077,0.174-0.174c0-0.095-0.079-0.173-0.174-0.173C7.753,2.172,7.675,2.25,7.675,2.345z"/>
			</g>
			<g>
				<path style="fill:#0071BC;" d="M8.123,4.936c0,0.15-0.123,0.273-0.273,0.273c-0.151,0-0.273-0.123-0.273-0.273
					c0-0.151,0.123-0.272,0.273-0.272C8,4.663,8.123,4.785,8.123,4.936z M7.675,4.936c0,0.095,0.078,0.173,0.174,0.174
					c0.095,0,0.174-0.078,0.174-0.174c0-0.097-0.077-0.173-0.174-0.173C7.753,4.762,7.675,4.84,7.675,4.936z"/>
			</g>
			<g>
				<path style="fill:#0071BC;" d="M9.012,4.898c0,0.151-0.123,0.273-0.273,0.273c-0.15,0-0.271-0.123-0.271-0.273
					c0-0.151,0.122-0.272,0.271-0.272C8.889,4.626,9.012,4.748,9.012,4.898z M8.566,4.898c0,0.096,0.077,0.174,0.172,0.174
					c0.095,0,0.174-0.078,0.174-0.174c0-0.097-0.077-0.173-0.174-0.173C8.643,4.725,8.566,4.803,8.566,4.898z"/>
			</g>
			<g>
				<path style="fill:#0071BC;" d="M9.012,8.989c0,0.15-0.123,0.272-0.273,0.272c-0.15,0-0.271-0.122-0.271-0.272
					c0-0.151,0.122-0.273,0.271-0.273C8.889,8.715,9.012,8.838,9.012,8.989z M8.566,8.989c0,0.095,0.077,0.173,0.172,0.173
					c0.095,0,0.174-0.078,0.174-0.173c0-0.098-0.077-0.174-0.174-0.174C8.643,8.814,8.566,8.892,8.566,8.989z"/>
			</g>
			<g>
				<path style="fill:#0071BC;" d="M7.899,7.894c0,0.15-0.123,0.273-0.273,0.273c-0.15,0-0.271-0.123-0.271-0.273
					c0-0.151,0.122-0.273,0.271-0.273C7.777,7.62,7.899,7.743,7.899,7.894z M7.454,7.894c0,0.096,0.077,0.174,0.172,0.174
					C7.721,8.067,7.8,7.99,7.8,7.894c0-0.097-0.079-0.174-0.174-0.174C7.531,7.719,7.454,7.797,7.454,7.894z"/>
			</g>
			<g>
				<path style="fill:#0071BC;" d="M10.125,7.894c0,0.15-0.123,0.273-0.273,0.273c-0.151,0-0.273-0.123-0.273-0.273
					c0-0.151,0.123-0.272,0.273-0.272C10.002,7.621,10.125,7.743,10.125,7.894z M9.677,7.894c0,0.096,0.078,0.174,0.174,0.174
					c0.095,0,0.174-0.078,0.174-0.174c0-0.098-0.077-0.173-0.174-0.173C9.755,7.72,9.677,7.798,9.677,7.894z"/>
			</g>
			<g>
				<path style="fill:#0071BC;" d="M9.901,15.146c0,0.151-0.122,0.273-0.271,0.273c-0.15,0-0.273-0.122-0.273-0.273
					c0-0.15,0.123-0.273,0.273-0.273C9.779,14.872,9.901,14.995,9.901,15.146z M9.456,15.146c0,0.097,0.079,0.174,0.174,0.174
					c0.096,0,0.172-0.077,0.172-0.174c0-0.096-0.077-0.174-0.172-0.174C9.534,14.972,9.456,15.05,9.456,15.146z"/>
			</g>
			<g>
				<path style="fill:#0071BC;" d="M9.901,7.152c0,0.15-0.123,0.272-0.273,0.272c-0.149,0-0.271-0.122-0.271-0.272
					c0-0.151,0.122-0.273,0.271-0.273C9.778,6.879,9.901,7.001,9.901,7.152z M9.456,7.152c0,0.095,0.077,0.173,0.172,0.173
					c0.098,0,0.174-0.076,0.174-0.173c0-0.097-0.079-0.174-0.174-0.174C9.532,6.978,9.456,7.056,9.456,7.152z"/>
			</g>
			<g>
				<path style="fill:#0071BC;" d="M10.79,13.222c0,0.15-0.122,0.273-0.271,0.273c-0.151,0-0.274-0.123-0.274-0.273
					s0.123-0.273,0.274-0.273C10.668,12.948,10.79,13.071,10.79,13.222z M10.345,13.222c0,0.097,0.079,0.174,0.174,0.174
					c0.095,0,0.172-0.077,0.172-0.174c0-0.097-0.077-0.174-0.172-0.174C10.423,13.048,10.345,13.125,10.345,13.222z"/>
			</g>
			<g>
				<path style="fill:#0071BC;" d="M10.79,14.694c0,0.15-0.122,0.274-0.271,0.274c-0.151,0-0.274-0.123-0.274-0.274
					s0.123-0.273,0.274-0.273C10.668,14.421,10.79,14.544,10.79,14.694z M10.345,14.694c0,0.097,0.079,0.174,0.174,0.174
					c0.095,0,0.172-0.077,0.172-0.174c0-0.097-0.077-0.174-0.172-0.174C10.423,14.521,10.345,14.598,10.345,14.694z"/>
			</g>
			<g>
				<path style="fill:#0071BC;" d="M9.012,20.848c0,0.15-0.123,0.273-0.273,0.273c-0.15,0-0.271-0.123-0.271-0.273
					c0-0.15,0.122-0.274,0.271-0.274C8.889,20.574,9.012,20.697,9.012,20.848z M8.566,20.848c0,0.097,0.077,0.174,0.172,0.174
					c0.095,0,0.174-0.077,0.174-0.174c0-0.097-0.079-0.174-0.174-0.174C8.643,20.674,8.566,20.751,8.566,20.848z"/>
			</g>
			<g>
				<path style="fill:#0071BC;" d="M8.123,13.445c0,0.151-0.123,0.273-0.273,0.273c-0.151,0-0.273-0.122-0.273-0.273
					c0-0.15,0.123-0.273,0.273-0.273C8,13.172,8.123,13.295,8.123,13.445z M7.675,13.445c0,0.097,0.078,0.174,0.174,0.174
					c0.095,0,0.174-0.077,0.174-0.174c0-0.096-0.079-0.174-0.174-0.174C7.753,13.271,7.675,13.35,7.675,13.445z"/>
			</g>
			<g>
				<path style="fill:#0071BC;" d="M9.901,18.999c0,0.151-0.123,0.273-0.273,0.273c-0.149,0-0.271-0.122-0.271-0.273
					c0-0.15,0.122-0.272,0.271-0.272C9.778,18.727,9.901,18.849,9.901,18.999z M9.456,18.999c0,0.097,0.077,0.175,0.172,0.175
					c0.096,0,0.174-0.078,0.174-0.175c0-0.096-0.079-0.174-0.174-0.174C9.532,18.825,9.456,18.903,9.456,18.999z"/>
			</g>
			<g>
				<path style="fill:#0071BC;" d="M9.901,22.456c0,0.151-0.123,0.273-0.273,0.273c-0.149,0-0.271-0.122-0.271-0.273
					c0-0.15,0.122-0.274,0.271-0.274C9.778,22.183,9.901,22.306,9.901,22.456z M9.456,22.456c0,0.097,0.077,0.175,0.172,0.175
					c0.096,0,0.174-0.078,0.174-0.175c0-0.096-0.079-0.174-0.174-0.174C9.532,22.282,9.456,22.36,9.456,22.456z"/>
			</g>
			<g>
				<path style="fill:#0071BC;" d="M12.57,12.5c0,0.151-0.123,0.273-0.273,0.273c-0.151,0-0.273-0.123-0.273-0.273
					s0.123-0.273,0.273-0.273C12.447,12.227,12.57,12.349,12.57,12.5z M12.123,12.5c0,0.096,0.079,0.174,0.174,0.174
					c0.095,0,0.174-0.078,0.174-0.174s-0.079-0.174-0.174-0.174C12.201,12.326,12.123,12.404,12.123,12.5z"/>
			</g>
			<g>
				<path style="fill:#0071BC;" d="M11.458,15.924c0,0.15-0.123,0.273-0.273,0.273s-0.274-0.123-0.274-0.273
					c0-0.15,0.123-0.273,0.274-0.273S11.458,15.773,11.458,15.924z M11.01,15.924c0,0.097,0.079,0.174,0.174,0.174
					c0.095,0,0.174-0.077,0.174-0.174c0-0.097-0.079-0.174-0.174-0.174C11.089,15.75,11.01,15.827,11.01,15.924z"/>
			</g>
			<g>
				<path style="fill:#0071BC;" d="M12.568,16.696c0,0.15-0.122,0.273-0.271,0.273c-0.151,0-0.273-0.123-0.273-0.273
					c0-0.151,0.123-0.273,0.273-0.273C12.446,16.423,12.568,16.545,12.568,16.696z M12.123,16.696c0,0.096,0.079,0.174,0.174,0.174
					c0.095,0,0.172-0.078,0.172-0.174c0-0.097-0.077-0.174-0.172-0.174C12.201,16.522,12.123,16.6,12.123,16.696z"/>
			</g>
			<g>
				<path style="fill:#0071BC;" d="M11.679,20.136c0,0.15-0.122,0.274-0.272,0.274c-0.151,0-0.273-0.123-0.273-0.274
					c0-0.151,0.122-0.273,0.273-0.273C11.558,19.862,11.679,19.984,11.679,20.136z M11.233,20.136c0,0.096,0.079,0.174,0.174,0.174
					c0.095,0,0.172-0.078,0.172-0.174c0-0.097-0.077-0.174-0.172-0.174C11.313,19.962,11.233,20.039,11.233,20.136z"/>
			</g>
			<g>
				<path style="fill:#0071BC;" d="M12.568,21.552c0,0.15-0.122,0.273-0.271,0.273c-0.151,0-0.273-0.123-0.273-0.273
					c0-0.15,0.123-0.274,0.273-0.274C12.446,21.278,12.568,21.401,12.568,21.552z M12.123,21.552c0,0.097,0.079,0.174,0.174,0.174
					c0.095,0,0.172-0.077,0.172-0.174c0-0.097-0.077-0.174-0.172-0.174C12.201,21.378,12.123,21.455,12.123,21.552z"/>
			</g>
			<g>
				<path style="fill:#0071BC;" d="M10.79,24.727c0,0.15-0.122,0.273-0.271,0.273c-0.151,0-0.274-0.123-0.274-0.273
					s0.123-0.274,0.274-0.274C10.668,24.453,10.79,24.576,10.79,24.727z M10.345,24.727c0,0.098,0.077,0.174,0.174,0.174
					c0.095,0,0.172-0.077,0.172-0.174c0-0.096-0.077-0.174-0.172-0.174C10.423,24.553,10.345,24.631,10.345,24.727z"/>
			</g>
			<g>
				<path style="fill:#0071BC;" d="M13.459,16.37c0,0.151-0.122,0.274-0.273,0.274c-0.15,0-0.273-0.122-0.273-0.274
					c0-0.15,0.123-0.273,0.273-0.273C13.337,16.097,13.459,16.22,13.459,16.37z M13.012,16.37c0,0.097,0.078,0.174,0.174,0.174
					c0.097,0,0.174-0.077,0.174-0.174c0-0.096-0.077-0.174-0.174-0.174C13.09,16.196,13.012,16.274,13.012,16.37z"/>
			</g>
			<g>
				<path style="fill:#0071BC;" d="M13.459,23.742c0,0.151-0.122,0.273-0.273,0.273c-0.15,0-0.273-0.122-0.273-0.273
					c0-0.15,0.123-0.273,0.273-0.273C13.337,23.469,13.459,23.592,13.459,23.742z M13.012,23.742c0,0.097,0.078,0.174,0.174,0.174
					c0.097,0,0.174-0.077,0.174-0.174c0-0.096-0.077-0.174-0.174-0.174C13.09,23.568,13.012,23.646,13.012,23.742z"/>
			</g>
			<g>
				<path style="fill:#0071BC;" d="M12.568,15.442c0,0.15-0.122,0.273-0.271,0.273c-0.151,0-0.273-0.123-0.273-0.273
					s0.123-0.274,0.273-0.274C12.446,15.169,12.568,15.292,12.568,15.442z M12.123,15.442c0,0.097,0.079,0.174,0.174,0.174
					c0.095,0,0.172-0.077,0.172-0.174s-0.077-0.174-0.172-0.174C12.201,15.269,12.123,15.346,12.123,15.442z"/>
			</g>
			<g>
				<path style="fill:#0071BC;" d="M11.679,12.401c0,0.151-0.122,0.273-0.272,0.273c-0.151,0-0.273-0.123-0.273-0.273
					s0.122-0.273,0.273-0.273C11.558,12.127,11.679,12.25,11.679,12.401z M11.233,12.401c0,0.096,0.079,0.174,0.174,0.174
					c0.095,0,0.172-0.078,0.172-0.174s-0.077-0.174-0.172-0.174C11.313,12.227,11.233,12.305,11.233,12.401z"/>
			</g>
			<g>
				<path style="fill:#0071BC;" d="M11.679,3.355c0,0.15-0.122,0.272-0.272,0.272c-0.151,0-0.273-0.122-0.273-0.272
					c0-0.151,0.122-0.273,0.273-0.273C11.558,3.082,11.679,3.204,11.679,3.355z M11.233,3.355c0,0.097,0.076,0.173,0.174,0.173
					c0.094,0,0.172-0.078,0.172-0.173c0-0.097-0.078-0.174-0.172-0.174C11.311,3.181,11.233,3.258,11.233,3.355z"/>
			</g>
			<g>
				<rect x="12.247" y="0.05" style="fill:#0071BC;" width="0.099" height="6.412"/>
			</g>
			<g>
				<rect x="11.358" y="0.05" style="fill:#0071BC;" width="0.1" height="3.081"/>
			</g>
			<g>
				<polygon style="fill:#0071BC;" points="13.186,8.715 13.186,8.814 11.358,8.814 11.358,5.244 10.469,5.244 10.469,0.05 
					10.568,0.05 10.568,5.145 11.458,5.145 11.458,8.715 				"/>
			</g>
			<g>
				<polygon style="fill:#0071BC;" points="13.186,10.993 13.186,11.092 12.346,11.092 12.346,11.989 11.358,11.989 11.358,10.371 
					10.469,10.371 10.469,6.729 9.578,6.729 9.578,0.05 9.677,0.05 9.677,6.63 10.568,6.63 10.568,10.271 11.458,10.271 
					11.458,11.89 12.247,11.89 12.247,10.993 				"/>
			</g>
			<g>
				<polygon style="fill:#0071BC;" points="8.788,0.05 8.788,3.809 7.85,3.809 7.85,3.71 8.689,3.71 8.689,0.05 				"/>
			</g>
			<g>
				<rect x="8.689" y="5.092" style="fill:#0071BC;" width="0.099" height="3.673"/>
			</g>
			<g>
				<polygon style="fill:#0071BC;" points="10.568,11.217 10.568,12.998 10.469,12.998 10.469,11.316 9.578,11.316 9.578,7.354 
					9.677,7.354 9.677,11.217 				"/>
			</g>
			<g>
				<polygon style="fill:#0071BC;" points="13.235,14.287 13.235,15.974 11.408,15.974 11.408,15.874 13.136,15.874 13.136,14.386 
					12.247,14.386 12.247,12.718 12.346,12.718 12.346,14.287 				"/>
			</g>
			<g>
				<polygon style="fill:#0071BC;" points="12.346,14.713 12.346,15.219 12.247,15.219 12.247,14.813 11.358,14.813 11.358,12.625 
					11.458,12.625 11.458,14.713 				"/>
			</g>
			<g>
				<polygon style="fill:#0071BC;" points="10.568,14.918 10.568,17.841 9.578,17.841 9.578,16.711 8.788,16.711 8.788,20.624 
					8.689,20.624 8.689,16.611 9.677,16.611 9.677,17.742 10.469,17.742 10.469,14.918 				"/>
			</g>
			<g>
				<polygon style="fill:#0071BC;" points="10.568,20.273 10.568,21.244 9.679,21.244 9.679,22.232 9.58,22.232 9.58,21.146 
					10.469,21.146 10.469,20.373 9.578,20.373 9.578,19.224 9.677,19.224 9.677,20.273 				"/>
			</g>
			<g>
				<polygon style="fill:#0071BC;" points="13.235,16.608 13.235,19.049 12.346,19.049 12.346,20.798 13.235,20.798 13.235,23.519 
					13.136,23.519 13.136,20.897 12.247,20.897 12.247,18.95 13.136,18.95 13.136,16.608 				"/>
			</g>
			<g>
				<polygon style="fill:#0071BC;" points="12.346,16.92 12.346,18.484 11.458,18.484 11.458,19.929 11.358,19.929 11.358,18.385 
					12.247,18.385 12.247,16.92 				"/>
			</g>
			<g>
				<polygon style="fill:#0071BC;" points="12.346,21.775 12.346,23.257 11.358,23.257 11.358,22.541 10.568,22.541 10.568,24.444 
					10.469,24.444 10.469,22.441 11.458,22.441 11.458,23.158 12.247,23.158 12.247,21.775 				"/>
			</g>
			<g>
				<rect x="7.8" y="0.05" style="fill:#0071BC;" width="0.1" height="2.073"/>
			</g>
			<g>
				<polygon style="fill:#0071BC;" points="9.679,13.011 9.679,14.918 9.58,14.918 9.58,13.11 8.689,13.11 8.689,11.056 7.8,11.056 
					7.8,9.23 6.911,9.23 6.911,7.284 7.8,7.284 7.8,5.154 7.899,5.154 7.899,7.383 7.01,7.383 7.01,9.13 7.899,9.13 7.899,10.957 
					8.788,10.957 8.788,13.011 				"/>
			</g>
			<g>
				<rect x="11.408" y="9.603" style="fill:#0071BC;" width="1.778" height="0.099"/>
			</g>
			<g>
				<rect x="7.85" y="7.844" style="fill:#0071BC;" width="1.78" height="0.099"/>
			</g>
			<g>
				<polygon style="fill:#0071BC;" points="8.788,21.402 8.788,24.974 8.689,24.974 8.689,21.501 7.8,21.501 7.8,18.728 
					6.911,18.728 6.911,15.858 7.8,15.858 7.8,13.677 7.899,13.677 7.899,15.957 7.01,15.957 7.01,18.627 7.899,18.627 
					7.899,21.402 				"/>
			</g>
			<g>
				<rect x="7.8" y="16.557" style="fill:#0071BC;" width="0.1" height="1.402"/>
			</g>
		</g>
		<g>
			<path style="fill:#0071BC;" d="M6.344,18.232c0,0.15-0.122,0.272-0.271,0.272c-0.15,0-0.273-0.122-0.273-0.272
				c0-0.151,0.123-0.273,0.273-0.273C6.222,17.959,6.344,18.081,6.344,18.232z M5.898,18.232c0,0.097,0.077,0.173,0.174,0.173
				c0.096,0,0.172-0.078,0.172-0.173c0-0.097-0.077-0.175-0.172-0.175C5.977,18.058,5.898,18.136,5.898,18.232z"/>
		</g>
		<g>
			<path style="fill:#0071BC;" d="M8.122,18.232c0,0.15-0.122,0.272-0.271,0.272c-0.151,0-0.273-0.122-0.273-0.272
				c0-0.151,0.123-0.273,0.273-0.273C8,17.959,8.122,18.081,8.122,18.232z M7.676,18.232c0,0.097,0.077,0.173,0.174,0.173
				c0.095,0,0.172-0.078,0.172-0.173c0-0.097-0.077-0.175-0.172-0.175C7.755,18.058,7.676,18.136,7.676,18.232z"/>
		</g>
		<g>
			<path style="fill:#0071BC;" d="M8.122,16.286c0,0.15-0.122,0.271-0.271,0.271c-0.151,0-0.273-0.121-0.273-0.271
				c0-0.151,0.123-0.273,0.273-0.273C8,16.013,8.122,16.135,8.122,16.286z M7.676,16.286c0,0.097,0.077,0.173,0.174,0.173
				c0.095,0,0.172-0.078,0.172-0.173c0-0.097-0.077-0.175-0.172-0.175C7.755,16.111,7.676,16.19,7.676,16.286z"/>
		</g>
		<g>
			<path style="fill:#0071BC;" d="M15.1,8.665c0,0.151-0.12,0.272-0.271,0.272c-0.151,0-0.273-0.122-0.273-0.272
				c0-0.15,0.122-0.273,0.273-0.273C14.979,8.392,15.1,8.514,15.1,8.665z M14.654,8.665c0,0.098,0.078,0.173,0.175,0.173
				c0.096,0,0.172-0.078,0.172-0.173c0-0.096-0.076-0.174-0.172-0.174C14.734,8.491,14.654,8.568,14.654,8.665z"/>
		</g>
		<g>
			<path style="fill:#0071BC;" d="M15.1,6.769c0,0.151-0.12,0.272-0.271,0.272c-0.151,0-0.273-0.122-0.273-0.272
				c0-0.151,0.122-0.273,0.273-0.273C14.979,6.496,15.1,6.618,15.1,6.769z M14.654,6.769c0,0.097,0.078,0.173,0.175,0.173
				c0.096,0,0.172-0.078,0.172-0.173c0-0.096-0.076-0.174-0.172-0.174C14.734,6.595,14.654,6.673,14.654,6.769z"/>
		</g>
		<g>
			<path style="fill:#0071BC;" d="M22.092,6.769c0,0.151-0.121,0.272-0.271,0.272c-0.151,0-0.274-0.122-0.274-0.272
				c0-0.151,0.123-0.273,0.274-0.273C21.971,6.496,22.092,6.618,22.092,6.769z M21.646,6.769c0,0.097,0.077,0.173,0.175,0.173
				c0.096,0,0.171-0.078,0.171-0.173c0-0.096-0.075-0.174-0.171-0.174C21.726,6.595,21.646,6.673,21.646,6.769z"/>
		</g>
		<g>
			<path style="fill:#0071BC;" d="M22.092,8.664c0,0.151-0.121,0.272-0.271,0.272c-0.151,0-0.274-0.122-0.274-0.272
				c0-0.15,0.123-0.273,0.274-0.273C21.971,8.391,22.092,8.513,22.092,8.664z M21.646,8.664c0,0.098,0.077,0.173,0.175,0.173
				c0.096,0,0.171-0.078,0.171-0.173c0-0.096-0.075-0.174-0.171-0.174C21.726,8.49,21.646,8.567,21.646,8.664z"/>
		</g>
		<g>
			<path style="fill:#0071BC;" d="M6.344,16.286c0,0.15-0.122,0.271-0.271,0.271c-0.15,0-0.273-0.121-0.273-0.271
				c0-0.151,0.123-0.273,0.273-0.273C6.222,16.013,6.344,16.135,6.344,16.286z M5.898,16.286c0,0.097,0.077,0.173,0.174,0.173
				c0.096,0,0.172-0.078,0.172-0.173c0-0.097-0.077-0.175-0.172-0.175C5.977,16.111,5.898,16.19,5.898,16.286z"/>
		</g>
	</g>
</g>
</svg>
